<?xml version="1.0" encoding="UTF-8"?>
<svg xmlns="http://www.w3.org/2000/svg" xmlns:xlink="http://www.w3.org/1999/xlink" width="217pt" height="217pt" viewBox="0 0 217 217" version="1.1">
<g id="surface1">
<path style=" stroke:none;fill-rule:nonzero;fill:rgb(95%,30%,36%);fill-opacity:1;" d="M 212.941406 80.109375 C 228.375 137.710938 194.191406 196.925781 136.589844 212.359375 C 78.984375 227.792969 19.769531 193.609375 4.335938 136.003906 C -11.101563 78.398438 23.085938 19.1875 80.695313 3.75 C 138.292969 -11.683594 197.503906 22.503906 212.941406 80.109375 "/>
<path style=" stroke:none;fill-rule:evenodd;fill:rgb(99.609375%,99.609375%,99.609375%);fill-opacity:1;" d="M 105.308594 102.011719 C 105.144531 101.8125 104.976563 101.613281 104.804688 101.417969 C 104.886719 101.664063 104.976563 101.910156 105.070313 102.152344 L 105.285156 102.246094 Z M 201.902344 79.886719 C 200.269531 80.324219 199.292969 82.015625 199.730469 83.648438 C 200.167969 85.28125 201.859375 86.257813 203.492188 85.820313 C 205.121094 85.382813 206.101563 83.691406 205.664063 82.058594 C 205.226563 80.425781 203.53125 79.449219 201.902344 79.886719 Z M 175.320313 37.03125 C 174.128906 38.222656 174.128906 40.179688 175.320313 41.371094 C 176.515625 42.566406 178.46875 42.566406 179.664063 41.371094 C 180.859375 40.179688 180.859375 38.222656 179.664063 37.03125 C 178.46875 35.835938 176.515625 35.835938 175.320313 37.03125 Z M 130.875 13.203125 C 130.4375 14.835938 131.414063 16.527344 133.046875 16.964844 C 134.675781 17.402344 136.371094 16.425781 136.808594 14.792969 C 137.242188 13.160156 136.265625 11.46875 134.636719 11.03125 C 133.003906 10.59375 131.3125 11.570313 130.875 13.203125 Z M 80.46875 14.792969 C 80.90625 16.425781 82.597656 17.402344 84.230469 16.964844 C 85.859375 16.527344 86.839844 14.835938 86.402344 13.203125 C 85.964844 11.570313 84.273438 10.59375 82.640625 11.03125 C 81.007813 11.46875 80.03125 13.160156 80.46875 14.792969 Z M 37.609375 41.371094 C 38.804688 42.566406 40.761719 42.566406 41.953125 41.371094 C 43.148438 40.179688 43.148438 38.222656 41.953125 37.03125 C 40.761719 35.835938 38.804688 35.835938 37.609375 37.03125 C 36.417969 38.222656 36.417969 40.179688 37.609375 41.371094 Z M 13.785156 85.820313 C 15.414063 86.257813 17.109375 85.28125 17.546875 83.648438 C 17.984375 82.015625 17.003906 80.324219 15.375 79.886719 C 13.742188 79.449219 12.050781 80.425781 11.613281 82.058594 C 11.175781 83.691406 12.152344 85.382813 13.785156 85.820313 Z M 15.375 136.226563 C 17.003906 135.789063 17.984375 134.09375 17.546875 132.464844 C 17.109375 130.832031 15.414063 129.855469 13.785156 130.292969 C 12.152344 130.730469 11.175781 132.421875 11.613281 134.054688 C 12.050781 135.683594 13.742188 136.664063 15.375 136.226563 Z M 41.953125 179.082031 C 43.148438 177.890625 43.148438 175.933594 41.953125 174.738281 C 40.761719 173.546875 38.804688 173.546875 37.609375 174.738281 C 36.417969 175.933594 36.417969 177.890625 37.609375 179.082031 C 38.804688 180.277344 40.761719 180.277344 41.953125 179.082031 Z M 86.402344 202.910156 C 86.839844 201.277344 85.859375 199.585938 84.230469 199.148438 C 82.597656 198.710938 80.90625 199.6875 80.46875 201.320313 C 80.03125 202.953125 81.007813 204.644531 82.640625 205.082031 C 84.273438 205.519531 85.964844 204.539063 86.402344 202.910156 Z M 136.808594 201.320313 C 136.371094 199.6875 134.675781 198.710938 133.046875 199.148438 C 131.414063 199.585938 130.4375 201.277344 130.875 202.910156 C 131.3125 204.539063 133.003906 205.519531 134.636719 205.082031 C 136.265625 204.644531 137.242188 202.953125 136.808594 201.320313 Z M 179.664063 174.738281 C 178.46875 173.546875 176.515625 173.546875 175.320313 174.738281 C 174.128906 175.933594 174.128906 177.890625 175.320313 179.082031 C 176.515625 180.277344 178.46875 180.277344 179.664063 179.082031 C 180.859375 177.890625 180.859375 175.933594 179.664063 174.738281 Z M 203.492188 130.292969 C 201.859375 129.855469 200.167969 130.832031 199.730469 132.464844 C 199.292969 134.09375 200.269531 135.789063 201.902344 136.226563 C 203.53125 136.664063 205.226563 135.683594 205.664063 134.054688 C 206.101563 132.421875 205.121094 130.730469 203.492188 130.292969 Z M 195.59375 64.121094 C 194.0625 64.835938 193.394531 66.671875 194.105469 68.203125 C 194.820313 69.730469 196.65625 70.398438 198.1875 69.6875 C 199.71875 68.972656 200.386719 67.136719 199.675781 65.605469 C 198.960938 64.074219 197.121094 63.40625 195.59375 64.121094 Z M 161.976563 26.527344 C 161.007813 27.910156 161.347656 29.835938 162.730469 30.804688 C 164.113281 31.773438 166.039063 31.4375 167.007813 30.050781 C 167.976563 28.667969 167.636719 26.742188 166.253906 25.773438 C 164.867188 24.804688 162.945313 25.144531 161.976563 26.527344 Z M 114.066406 10.78125 C 113.917969 12.464844 115.175781 13.964844 116.855469 14.109375 C 118.539063 14.257813 120.035156 13 120.183594 11.320313 C 120.332031 9.636719 119.074219 8.140625 117.390625 7.992188 C 115.710938 7.84375 114.214844 9.101563 114.066406 10.78125 Z M 64.703125 21.101563 C 65.414063 22.632813 67.253906 23.300781 68.78125 22.585938 C 70.3125 21.871094 70.980469 20.035156 70.269531 18.507813 C 69.554688 16.976563 67.71875 16.308594 66.1875 17.019531 C 64.65625 17.734375 63.988281 19.570313 64.703125 21.101563 Z M 27.109375 54.71875 C 28.492188 55.6875 30.417969 55.347656 31.386719 53.964844 C 32.355469 52.582031 32.015625 50.65625 30.632813 49.6875 C 29.25 48.71875 27.324219 49.058594 26.355469 50.441406 C 25.386719 51.824219 25.726563 53.75 27.109375 54.71875 Z M 11.363281 102.628906 C 13.046875 102.777344 14.542969 101.519531 14.691406 99.835938 C 14.839844 98.15625 13.582031 96.65625 11.898438 96.511719 C 10.21875 96.363281 8.71875 97.621094 8.574219 99.300781 C 8.425781 100.984375 9.679688 102.480469 11.363281 102.628906 Z M 21.683594 151.992188 C 23.214844 151.277344 23.882813 149.441406 23.167969 147.910156 C 22.453125 146.382813 20.617188 145.710938 19.085938 146.425781 C 17.554688 147.140625 16.886719 148.976563 17.601563 150.507813 C 18.316406 152.039063 20.152344 152.707031 21.683594 151.992188 Z M 55.300781 189.582031 C 56.269531 188.199219 55.929688 186.277344 54.546875 185.304688 C 53.164063 184.339844 51.238281 184.675781 50.269531 186.0625 C 49.300781 187.445313 49.640625 189.367188 51.023438 190.339844 C 52.40625 191.304688 54.332031 190.96875 55.300781 189.582031 Z M 103.210938 205.328125 C 103.355469 203.648438 102.101563 202.148438 100.417969 202.003906 C 98.734375 201.855469 97.238281 203.113281 97.09375 204.792969 C 96.945313 206.476563 98.199219 207.972656 99.882813 208.121094 C 101.566406 208.269531 103.0625 207.011719 103.210938 205.328125 Z M 152.574219 195.011719 C 151.859375 193.480469 150.023438 192.8125 148.492188 193.527344 C 146.960938 194.238281 146.292969 196.078125 147.007813 197.605469 C 147.722656 199.136719 149.558594 199.804688 151.089844 199.09375 C 152.621094 198.378906 153.289063 196.542969 152.574219 195.011719 Z M 190.164063 161.394531 C 188.78125 160.425781 186.855469 160.765625 185.886719 162.148438 C 184.921875 163.53125 185.257813 165.457031 186.644531 166.425781 C 188.027344 167.394531 189.949219 167.054688 190.921875 165.671875 C 191.886719 164.285156 191.550781 162.363281 190.164063 161.394531 Z M 205.910156 113.484375 C 204.230469 113.335938 202.730469 114.59375 202.585938 116.273438 C 202.4375 117.957031 203.691406 119.457031 205.375 119.601563 C 207.058594 119.75 208.554688 118.492188 208.703125 116.8125 C 208.851563 115.128906 207.59375 113.632813 205.910156 113.484375 Z M 186.644531 49.6875 C 185.257813 50.65625 184.921875 52.582031 185.886719 53.964844 C 186.855469 55.347656 188.78125 55.6875 190.164063 54.71875 C 191.550781 53.75 191.886719 51.824219 190.921875 50.441406 C 189.949219 49.058594 188.027344 48.71875 186.644531 49.6875 Z M 147.007813 18.507813 C 146.292969 20.035156 146.960938 21.871094 148.492188 22.585938 C 150.023438 23.300781 151.859375 22.632813 152.574219 21.101563 C 153.289063 19.570313 152.621094 17.734375 151.089844 17.019531 C 149.558594 16.308594 147.722656 16.976563 147.007813 18.507813 Z M 97.09375 11.320313 C 97.238281 13 98.734375 14.257813 100.417969 14.109375 C 102.101563 13.964844 103.355469 12.464844 103.210938 10.78125 C 103.0625 9.101563 101.566406 7.84375 99.882813 7.992188 C 98.199219 8.140625 96.945313 9.636719 97.09375 11.320313 Z M 50.269531 30.050781 C 51.238281 31.4375 53.164063 31.773438 54.546875 30.804688 C 55.929688 29.835938 56.269531 27.910156 55.300781 26.527344 C 54.332031 25.144531 52.40625 24.804688 51.023438 25.773438 C 49.640625 26.742188 49.300781 28.667969 50.269531 30.050781 Z M 19.085938 69.6875 C 20.617188 70.398438 22.453125 69.730469 23.167969 68.203125 C 23.882813 66.671875 23.214844 64.835938 21.683594 64.121094 C 20.152344 63.40625 18.316406 64.074219 17.601563 65.605469 C 16.886719 67.136719 17.554688 68.972656 19.085938 69.6875 Z M 11.898438 119.601563 C 13.582031 119.457031 14.839844 117.957031 14.691406 116.273438 C 14.542969 114.59375 13.046875 113.335938 11.363281 113.484375 C 9.679688 113.632813 8.425781 115.128906 8.574219 116.8125 C 8.71875 118.492188 10.21875 119.75 11.898438 119.601563 Z M 30.632813 166.425781 C 32.015625 165.457031 32.355469 163.53125 31.386719 162.148438 C 30.417969 160.765625 28.492188 160.425781 27.109375 161.394531 C 25.726563 162.363281 25.386719 164.285156 26.355469 165.671875 C 27.324219 167.054688 29.25 167.394531 30.632813 166.425781 Z M 70.269531 197.605469 C 70.980469 196.078125 70.3125 194.238281 68.78125 193.527344 C 67.253906 192.8125 65.414063 193.480469 64.703125 195.011719 C 63.988281 196.542969 64.65625 198.378906 66.1875 199.09375 C 67.71875 199.804688 69.554688 199.136719 70.269531 197.605469 Z M 120.183594 204.792969 C 120.035156 203.113281 118.539063 201.855469 116.855469 202.003906 C 115.175781 202.148438 113.917969 203.648438 114.066406 205.328125 C 114.214844 207.011719 115.710938 208.269531 117.390625 208.121094 C 119.074219 207.972656 120.332031 206.476563 120.183594 204.792969 Z M 167.007813 186.0625 C 166.039063 184.675781 164.113281 184.339844 162.730469 185.304688 C 161.347656 186.277344 161.007813 188.199219 161.976563 189.582031 C 162.945313 190.96875 164.867188 191.304688 166.253906 190.339844 C 167.636719 189.367188 167.976563 187.445313 167.007813 186.0625 Z M 198.1875 146.425781 C 196.65625 145.710938 194.820313 146.382813 194.105469 147.910156 C 193.394531 149.441406 194.0625 151.277344 195.59375 151.992188 C 197.121094 152.707031 198.960938 152.039063 199.675781 150.507813 C 200.386719 148.976563 199.71875 147.140625 198.1875 146.425781 Z M 205.375 96.511719 C 203.691406 96.65625 202.4375 98.15625 202.585938 99.835938 C 202.730469 101.519531 204.230469 102.777344 205.910156 102.628906 C 207.59375 102.480469 208.851563 100.984375 208.703125 99.300781 C 208.554688 97.621094 207.058594 96.363281 205.375 96.511719 Z M 108.777344 101.15625 C 108.734375 100.902344 108.6875 100.644531 108.636719 100.390625 C 108.589844 100.644531 108.539063 100.902344 108.5 101.15625 L 108.636719 101.351563 Z M 106.988281 95.113281 C 106.070313 92.941406 104.878906 90.839844 103.507813 88.90625 C 103.285156 91.265625 103.304688 93.683594 103.59375 96.023438 C 104.441406 96.71875 105.246094 97.449219 106.003906 98.21875 C 106.273438 97.175781 106.605469 96.136719 106.988281 95.113281 Z M 100.871094 85.648438 C 99.003906 83.617188 96.949219 81.910156 94.851563 80.699219 C 94.011719 80.214844 93.0625 79.738281 92.03125 79.296875 C 91.898438 80.410156 91.839844 81.46875 91.839844 82.441406 C 91.839844 84.859375 92.289063 87.492188 93.109375 90.121094 C 95.609375 91.027344 98.066406 92.226563 100.335938 93.671875 C 100.21875 90.984375 100.40625 88.261719 100.871094 85.648438 Z M 89.089844 78.210938 C 85.71875 77.164063 81.761719 76.574219 77.613281 77.03125 C 77.15625 81.179688 77.746094 85.136719 78.789063 88.507813 C 80.300781 88.289063 81.730469 88.195313 83.019531 88.195313 C 85.128906 88.195313 87.371094 88.496094 89.640625 89.0625 C 89.078125 86.789063 88.777344 84.546875 88.777344 82.441406 C 88.777344 81.148438 88.871094 79.722656 89.089844 78.210938 Z M 74.492188 77.570313 C 71.132813 78.375 67.714844 79.933594 64.445313 82.539063 C 63.820313 86.679688 64.179688 90.421875 65.167969 93.734375 C 68.597656 91.375 72.3125 89.90625 75.78125 89.078125 C 74.757813 85.664063 74.167969 81.71875 74.492188 77.570313 Z M 61.09375 85.660156 C 59.214844 87.683594 57.410156 90.113281 55.726563 93.027344 C 55.585938 93.277344 55.449219 93.527344 55.3125 93.78125 C 55.304688 94.058594 55.300781 94.339844 55.300781 94.617188 C 55.300781 97.980469 55.648438 100.988281 56.265625 103.679688 C 57.441406 101.488281 58.828125 99.574219 60.351563 97.910156 C 61.074219 97.125 61.824219 96.394531 62.597656 95.722656 C 62.265625 94.75 61.976563 93.742188 61.746094 92.699219 C 61.257813 90.496094 61.015625 88.148438 61.09375 85.660156 Z M 52.535156 99.980469 C 51.605469 102.570313 50.902344 105.269531 50.398438 108.050781 C 50.902344 110.832031 51.605469 113.535156 52.535156 116.132813 C 52.875 113.15625 53.496094 110.472656 54.34375 108.054688 C 53.5 105.640625 52.875 102.957031 52.535156 99.980469 Z M 49.441406 116.542969 C 49.320313 118.972656 49.320313 121.4375 49.417969 123.925781 C 50.574219 126.125 51.800781 128.25 53.113281 130.289063 C 52.652344 127.921875 52.363281 125.539063 52.273438 123.140625 C 51.15625 121.023438 50.21875 118.820313 49.441406 116.542969 Z M 49.957031 131.011719 C 50.328125 134.355469 50.847656 137.714844 51.484375 141.050781 C 54.054688 143.273438 56.703125 145.402344 59.414063 147.394531 C 57.902344 144.546875 56.582031 141.648438 55.5 138.710938 C 53.503906 136.316406 51.660156 133.734375 49.957031 131.011719 Z M 52.488281 145.890625 C 53.597656 150.839844 54.925781 155.695313 56.351563 160.34375 C 60.996094 161.765625 65.855469 163.09375 70.800781 164.203125 C 68.015625 160.792969 65.40625 157.257813 63.070313 153.621094 C 59.4375 151.289063 55.902344 148.675781 52.488281 145.890625 Z M 57.457031 163.867188 C 59.910156 171.46875 62.539063 178.390625 64.753906 184.0625 C 70.777344 183.144531 78.085938 181.960938 85.898438 180.285156 C 81.859375 176.457031 77.824219 172.34375 74.019531 168.003906 C 68.359375 166.882813 62.78125 165.445313 57.457031 163.867188 Z M 89.5 179.480469 C 94.234375 178.390625 99.105469 177.113281 103.945313 175.597656 C 99.824219 174.035156 95.789063 172.277344 91.949219 170.296875 C 87.636719 170.09375 83.273438 169.597656 78.929688 168.894531 C 82.363281 172.625 85.945313 176.167969 89.5 179.480469 Z M 108.636719 174.050781 C 111.851563 172.933594 115.023438 171.703125 118.105469 170.347656 C 114.886719 170.234375 111.71875 169.929688 108.640625 169.398438 C 105.558594 169.929688 102.390625 170.234375 99.171875 170.347656 C 102.253906 171.703125 105.425781 172.933594 108.636719 174.050781 Z M 124.503906 167.277344 C 126.703125 166.121094 128.828125 164.894531 130.867188 163.578125 C 128.503906 164.042969 126.117188 164.332031 123.722656 164.421875 C 121.605469 165.535156 119.402344 166.476563 117.128906 167.253906 C 119.554688 167.375 122.019531 167.375 124.503906 167.277344 Z M 137.757813 158.5 C 139.921875 156.660156 141.914063 154.695313 143.699219 152.585938 C 140.945313 153.785156 138.304688 154.59375 135.78125 155.070313 C 134.105469 157.015625 132.078125 158.902344 129.65625 160.691406 C 132.378906 160.199219 135.082031 159.453125 137.757813 158.5 Z M 147.664063 147.101563 C 147.8125 146.855469 147.964844 146.609375 148.109375 146.363281 C 149.789063 143.453125 150.992188 140.675781 151.804688 138.039063 C 149.683594 139.351563 147.527344 140.320313 145.371094 140.996094 C 144.359375 141.316406 143.351563 141.570313 142.347656 141.765625 C 142.148438 142.769531 141.898438 143.777344 141.578125 144.789063 C 140.898438 146.945313 139.933594 149.105469 138.613281 151.222656 C 141.253906 150.414063 144.03125 149.207031 146.945313 147.527344 C 147.1875 147.386719 147.425781 147.246094 147.664063 147.101563 Z M 152.832031 133.570313 C 153.453125 129.433594 153.09375 125.691406 152.109375 122.378906 C 148.675781 124.738281 144.964844 126.207031 141.492188 127.03125 C 142.515625 130.449219 143.105469 134.394531 142.785156 138.542969 C 146.144531 137.738281 149.5625 136.179688 152.832031 133.570313 Z M 151.019531 119.414063 C 149.339844 115.59375 146.847656 112.453125 144.257813 110.058594 C 143.058594 111 141.871094 111.792969 140.753906 112.4375 C 138.925781 113.496094 136.824219 114.359375 134.574219 115.003906 C 136.199219 116.691406 137.582031 118.484375 138.636719 120.308594 L 138.632813 120.3125 L 138.636719 120.320313 C 139.28125 121.4375 139.910156 122.71875 140.480469 124.132813 C 143.925781 123.355469 147.652344 121.882813 151.019531 119.414063 Z M 141.847656 108.058594 C 140.949219 107.386719 140.0625 106.804688 139.222656 106.316406 C 137.121094 105.105469 134.617188 104.175781 131.921875 103.574219 C 129.890625 105.285156 127.625 106.816406 125.242188 108.054688 C 127.628906 109.296875 129.894531 110.824219 131.925781 112.535156 C 134.621094 111.933594 137.125 111.007813 139.222656 109.796875 C 140.0625 109.308594 140.949219 108.730469 141.847656 108.058594 Z M 127.785156 102.925781 C 125.425781 102.703125 123.011719 102.722656 120.671875 103.011719 C 119.976563 103.859375 119.242188 104.664063 118.472656 105.421875 C 119.515625 105.691406 120.550781 106.023438 121.574219 106.410156 C 123.75 105.488281 125.851563 104.296875 127.785156 102.925781 Z M 115.277344 104.222656 C 115.03125 104.304688 114.789063 104.394531 114.546875 104.488281 L 114.449219 104.699219 L 114.6875 104.722656 C 114.886719 104.5625 115.085938 104.394531 115.277344 104.222656 Z M 108.644531 177.285156 C 103.183594 179.144531 97.632813 180.6875 92.226563 181.984375 C 98.148438 187.339844 103.886719 192.019531 108.636719 195.820313 C 113.394531 192.015625 119.132813 187.335938 125.058594 181.976563 C 119.652344 180.683594 114.101563 179.140625 108.644531 177.285156 Z M 88.617188 182.824219 C 79.949219 184.757813 71.8125 186.085938 65.210938 187.089844 L 65.210938 187.085938 C 63.828125 187.292969 62.4375 186.53125 61.910156 185.175781 C 59.480469 178.960938 56.5625 171.257813 53.90625 162.785156 C 45.503906 160.152344 37.855469 157.261719 31.667969 154.84375 C 30.28125 154.386719 29.378906 152.980469 29.605469 151.484375 C 30.609375 144.882813 31.933594 136.746094 33.871094 128.078125 C 27.890625 121.570313 22.695313 115.210938 18.53125 110.003906 C 17.621094 108.917969 17.574219 107.304688 18.492188 106.152344 C 22.664063 100.941406 27.875 94.5625 33.871094 88.035156 C 31.933594 79.367188 30.609375 71.230469 29.605469 64.628906 L 29.609375 64.628906 C 29.398438 63.246094 30.164063 61.855469 31.519531 61.328125 C 37.730469 58.898438 45.433594 55.980469 53.90625 53.324219 C 56.539063 44.921875 59.433594 37.273438 61.851563 31.085938 C 62.308594 29.699219 63.714844 28.800781 65.210938 29.023438 C 71.8125 30.027344 79.949219 31.351563 88.617188 33.289063 C 95.125 27.3125 101.484375 22.113281 106.6875 17.949219 C 107.777344 17.042969 109.390625 16.992188 110.539063 17.910156 C 115.753906 22.082031 122.132813 27.292969 128.660156 33.289063 C 137.328125 31.351563 145.464844 30.027344 152.066406 29.023438 L 152.066406 29.027344 C 153.445313 28.816406 154.839844 29.582031 155.367188 30.9375 C 157.796875 37.148438 160.714844 44.851563 163.367188 53.324219 C 171.773438 55.960938 179.421875 58.851563 185.605469 61.269531 C 186.996094 61.726563 187.894531 63.132813 187.671875 64.628906 C 186.664063 71.230469 185.339844 79.367188 183.402344 88.035156 C 189.382813 94.542969 194.582031 100.902344 198.746094 106.105469 C 199.652344 107.195313 199.703125 108.808594 198.78125 109.960938 C 194.613281 115.171875 189.402344 121.550781 183.402344 128.078125 C 185.339844 136.746094 186.664063 144.882813 187.671875 151.484375 L 187.667969 151.484375 C 187.875 152.863281 187.113281 154.257813 185.757813 154.785156 C 179.542969 157.214844 171.839844 160.132813 163.363281 162.789063 C 160.714844 171.222656 157.804688 178.90625 155.378906 185.117188 C 154.890625 186.449219 153.519531 187.296875 152.0625 187.074219 C 145.460938 186.070313 137.324219 184.746094 128.667969 182.816406 C 122.15625 188.796875 115.792969 194 110.585938 198.164063 C 109.496094 199.070313 107.886719 199.121094 106.734375 198.203125 C 101.523438 194.03125 95.144531 188.820313 88.617188 182.824219 Z M 52.824219 159.234375 C 51.25 153.910156 49.8125 148.335938 48.6875 142.675781 C 44.351563 138.871094 40.238281 134.835938 36.410156 130.796875 C 34.734375 138.609375 33.546875 145.917969 32.632813 151.9375 C 38.300781 154.152344 45.222656 156.78125 52.824219 159.234375 Z M 47.800781 137.765625 C 47.09375 133.421875 46.601563 129.058594 46.398438 124.746094 C 44.414063 120.90625 42.65625 116.878906 41.09375 112.757813 C 39.582031 117.59375 38.300781 122.460938 37.210938 127.195313 C 40.527344 130.75 44.070313 134.332031 47.800781 137.765625 Z M 46.34375 117.527344 C 46.457031 114.304688 46.761719 111.136719 47.292969 108.054688 C 46.761719 104.972656 46.457031 101.808594 46.347656 98.585938 C 44.988281 101.671875 43.761719 104.84375 42.644531 108.058594 C 43.761719 111.269531 44.988281 114.441406 46.34375 117.527344 Z M 49.445313 99.554688 C 50.222656 97.285156 51.160156 95.085938 52.269531 92.972656 C 52.363281 90.574219 52.652344 88.191406 53.113281 85.828125 C 51.800781 87.863281 50.574219 89.988281 49.421875 92.183594 C 49.324219 94.667969 49.324219 97.128906 49.445313 99.554688 Z M 56 87.035156 C 57.789063 84.613281 59.675781 82.589844 61.621094 80.914063 C 62.097656 78.394531 62.902344 75.753906 64.101563 73 C 61.996094 74.785156 60.027344 76.777344 58.195313 78.9375 C 57.238281 81.613281 56.496094 84.3125 56 87.035156 Z M 65.46875 78.078125 C 67.589844 76.761719 69.75 75.792969 71.902344 75.113281 C 72.914063 74.796875 73.925781 74.542969 74.929688 74.347656 C 75.125 73.34375 75.378906 72.335938 75.695313 71.324219 C 76.375 69.167969 77.34375 67.007813 78.660156 64.890625 C 76.019531 65.699219 73.242188 66.90625 70.332031 68.585938 C 70.082031 68.730469 69.839844 68.882813 69.59375 69.03125 C 69.449219 69.269531 69.304688 69.507813 69.167969 69.75 C 67.484375 72.660156 66.28125 75.441406 65.46875 78.078125 Z M 78.152344 73.910156 C 82.296875 73.585938 86.246094 74.175781 89.664063 75.199219 C 90.488281 71.730469 91.957031 68.015625 94.316406 64.585938 C 91.003906 63.597656 87.261719 63.238281 83.125 63.863281 C 80.515625 67.132813 78.957031 70.550781 78.152344 73.910156 Z M 92.5625 76.214844 C 93.902344 76.753906 95.121094 77.347656 96.199219 77.957031 C 96.261719 77.988281 96.320313 78.019531 96.382813 78.054688 C 98.210938 79.109375 100.003906 80.496094 101.6875 82.117188 C 102.3125 79.953125 103.132813 77.929688 104.136719 76.148438 C 104.203125 76.011719 104.28125 75.878906 104.367188 75.746094 C 104.992188 74.6875 105.75 73.570313 106.636719 72.4375 C 104.242188 69.84375 101.101563 67.355469 97.28125 65.675781 C 94.8125 69.042969 93.339844 72.769531 92.5625 76.214844 Z M 104.160156 84.765625 C 105.867188 86.796875 107.394531 89.0625 108.636719 91.445313 C 109.878906 89.058594 111.40625 86.789063 113.117188 84.761719 C 112.515625 82.070313 111.585938 79.566406 110.378906 77.472656 C 109.890625 76.628906 109.308594 75.746094 108.636719 74.84375 C 107.964844 75.746094 107.382813 76.632813 106.898438 77.472656 C 105.6875 79.570313 104.761719 82.074219 104.160156 84.765625 Z M 110.28125 95.117188 C 110.671875 96.140625 111.003906 97.179688 111.273438 98.21875 C 112.027344 97.449219 112.835938 96.71875 113.683594 96.023438 C 113.972656 93.683594 113.992188 91.265625 113.769531 88.90625 C 112.394531 90.839844 111.203125 92.945313 110.28125 95.117188 Z M 111.96875 102.007813 L 111.992188 102.242188 L 112.207031 102.148438 C 112.300781 101.90625 112.386719 101.660156 112.472656 101.414063 C 112.300781 101.609375 112.132813 101.808594 111.96875 102.007813 Z M 115.835938 100.855469 C 116.875 100.570313 117.941406 100.339844 119.019531 100.160156 C 120.441406 98.277344 121.667969 96.195313 122.65625 94.035156 C 120.5 95.023438 118.417969 96.25 116.53125 97.671875 C 116.355469 98.753906 116.125 99.816406 115.835938 100.855469 Z M 123.023438 99.753906 C 125.707031 99.636719 128.433594 99.824219 131.046875 100.289063 C 133.078125 98.421875 134.78125 96.367188 135.996094 94.269531 C 136.480469 93.429688 136.957031 92.480469 137.398438 91.449219 C 136.285156 91.316406 135.226563 91.257813 134.253906 91.257813 C 131.835938 91.257813 129.203125 91.707031 126.574219 92.53125 C 125.667969 95.027344 124.46875 97.484375 123.023438 99.753906 Z M 134.570313 101.105469 C 136.820313 101.753906 138.917969 102.613281 140.746094 103.671875 L 140.753906 103.671875 C 141.871094 104.316406 143.054688 105.113281 144.257813 106.054688 C 146.847656 103.660156 149.339844 100.523438 151.019531 96.699219 C 147.652344 94.230469 143.925781 92.757813 140.480469 91.980469 C 139.957031 93.28125 139.378906 94.472656 138.789063 95.527344 C 138.703125 95.710938 138.601563 95.890625 138.480469 96.0625 C 137.441406 97.796875 136.113281 99.503906 134.570313 101.105469 Z M 146.578125 108.058594 C 149.171875 110.507813 151.65625 113.632813 153.449219 117.390625 C 155.960938 115.011719 158.140625 111.953125 159.667969 108.058594 C 158.140625 104.160156 155.960938 101.101563 153.449219 98.726563 C 151.65625 102.480469 149.171875 105.605469 146.578125 108.058594 Z M 154.675781 120.390625 C 155.722656 123.421875 156.304688 126.78125 156.1875 130.445313 C 158.066406 128.425781 159.867188 125.996094 161.546875 123.085938 C 161.691406 122.835938 161.828125 122.585938 161.964844 122.332031 C 161.972656 122.054688 161.972656 121.773438 161.972656 121.496094 C 161.972656 118.132813 161.628906 115.121094 161.007813 112.433594 C 159.832031 114.625 158.449219 116.539063 156.921875 118.203125 C 156.203125 118.988281 155.449219 119.714844 154.675781 120.390625 Z M 155.660156 135.199219 C 155.179688 137.71875 154.371094 140.363281 153.171875 143.121094 C 155.277344 141.332031 157.246094 139.335938 159.082031 137.171875 C 160.035156 134.503906 160.777344 131.808594 161.273438 129.089844 C 159.488281 131.507813 157.601563 133.527344 155.660156 135.199219 Z M 149.886719 149.3125 C 148.609375 151.34375 147.164063 153.265625 145.578125 155.085938 C 147.742188 153.972656 149.882813 152.738281 151.992188 151.40625 C 153.320313 149.300781 154.554688 147.164063 155.664063 145 C 153.84375 146.585938 151.921875 148.03125 149.886719 149.3125 Z M 139.289063 161.195313 C 136.894531 163.191406 134.3125 165.035156 131.589844 166.738281 C 134.9375 166.367188 138.296875 165.847656 141.636719 165.210938 C 143.855469 162.640625 145.988281 159.992188 147.976563 157.277344 C 145.128906 158.792969 142.230469 160.113281 139.289063 161.195313 Z M 125.328125 170.292969 C 121.488281 172.28125 117.460938 174.039063 113.339844 175.601563 C 118.175781 177.113281 123.042969 178.390625 127.777344 179.480469 C 131.332031 176.167969 134.914063 172.625 138.347656 168.894531 C 134.003906 169.597656 129.640625 170.089844 125.328125 170.292969 Z M 75.644531 165.210938 C 78.980469 165.847656 82.335938 166.367188 85.675781 166.734375 C 82.949219 165.03125 80.359375 163.183594 77.960938 161.1875 C 75.035156 160.109375 72.144531 158.792969 69.308594 157.285156 C 71.296875 159.996094 73.425781 162.640625 75.644531 165.210938 Z M 92.773438 167.277344 C 95.257813 167.375 97.726563 167.375 100.152344 167.253906 C 97.875 166.476563 95.671875 165.539063 93.550781 164.421875 C 91.160156 164.332031 88.777344 164.042969 86.414063 163.582031 C 88.449219 164.894531 90.578125 166.121094 92.773438 167.277344 Z M 108.636719 166.300781 C 111.417969 165.792969 114.121094 165.085938 116.714844 164.160156 C 113.738281 163.820313 111.054688 163.195313 108.636719 162.347656 C 106.21875 163.195313 103.53125 163.820313 100.554688 164.160156 C 103.148438 165.089844 105.851563 165.792969 108.636719 166.300781 Z M 122.914063 161.382813 C 123.164063 161.246094 123.417969 161.109375 123.667969 160.964844 C 126.578125 159.285156 129.011719 157.480469 131.035156 155.597656 C 128.546875 155.679688 126.195313 155.4375 123.992188 154.949219 C 122.953125 154.71875 121.945313 154.429688 120.972656 154.09375 C 120.296875 154.871094 119.570313 155.621094 118.78125 156.339844 C 117.121094 157.867188 115.203125 159.25 113.011719 160.429688 C 115.703125 161.046875 118.714844 161.390625 122.078125 161.390625 C 122.355469 161.390625 122.636719 161.390625 122.914063 161.382813 Z M 134.152344 152.25 C 136.761719 148.980469 138.320313 145.5625 139.121094 142.203125 C 134.976563 142.527344 131.03125 141.9375 127.613281 140.914063 C 126.785156 144.382813 125.320313 148.097656 122.960938 151.527344 C 126.273438 152.515625 130.015625 152.875 134.152344 152.25 Z M 139.664063 139.082031 C 140.117188 134.933594 139.53125 130.976563 138.484375 127.605469 C 136.972656 127.820313 135.546875 127.917969 134.257813 127.917969 C 132.148438 127.917969 129.902344 127.617188 127.632813 127.050781 C 128.199219 129.320313 128.496094 131.566406 128.496094 133.671875 C 128.496094 134.964844 128.402344 136.390625 128.1875 137.902344 C 131.554688 138.949219 135.515625 139.539063 139.664063 139.082031 Z M 137.398438 124.664063 C 136.957031 123.628906 136.480469 122.683594 135.992188 121.839844 C 134.78125 119.742188 133.078125 117.6875 131.046875 115.820313 C 128.433594 116.285156 125.707031 116.476563 123.023438 116.359375 C 124.46875 118.628906 125.667969 121.085938 126.574219 123.582031 C 129.203125 124.40625 131.835938 124.855469 134.257813 124.855469 C 135.226563 124.855469 136.285156 124.792969 137.398438 124.664063 Z M 127.789063 113.1875 C 125.851563 111.8125 123.75 110.621094 121.578125 109.703125 C 120.554688 110.089844 119.515625 110.421875 118.472656 110.691406 C 119.242188 111.445313 119.976563 112.253906 120.671875 113.101563 C 123.011719 113.390625 125.425781 113.410156 127.789063 113.1875 Z M 116.304688 108.054688 C 116.046875 108.003906 115.792969 107.960938 115.535156 107.917969 L 115.34375 108.058594 L 115.535156 108.195313 C 115.792969 108.152344 116.046875 108.105469 116.304688 108.054688 Z M 34.707031 124.464844 C 36.003906 119.066406 37.546875 113.519531 39.40625 108.058594 C 37.546875 102.59375 36.003906 97.046875 34.707031 91.644531 C 29.355469 97.566406 24.675781 103.304688 20.875 108.058594 C 24.675781 112.808594 29.355469 118.542969 34.707031 124.464844 Z M 41.09375 103.355469 C 42.65625 99.234375 44.414063 95.203125 46.398438 91.363281 C 46.601563 87.050781 47.09375 82.6875 47.800781 78.34375 C 44.070313 81.78125 40.527344 85.359375 37.210938 88.917969 C 38.300781 93.652344 39.582031 98.519531 41.09375 103.355469 Z M 49.960938 85.097656 C 51.664063 82.375 53.503906 79.796875 55.5 77.402344 C 56.582031 74.464844 57.902344 71.566406 59.414063 68.71875 C 56.703125 70.710938 54.054688 72.839844 51.488281 75.058594 C 50.851563 78.394531 50.328125 81.753906 49.960938 85.097656 Z M 61.613281 71.113281 C 63.429688 69.527344 65.351563 68.085938 67.382813 66.804688 C 68.664063 64.773438 70.109375 62.847656 71.695313 61.03125 C 69.53125 62.140625 67.390625 63.375 65.285156 64.707031 C 63.953125 66.8125 62.722656 68.949219 61.613281 71.113281 Z M 73.566406 63.53125 C 76.324219 62.328125 78.96875 61.519531 81.492188 61.042969 C 83.167969 59.097656 85.191406 57.214844 87.609375 55.425781 C 84.890625 55.917969 82.183594 56.660156 79.511719 57.617188 C 77.347656 59.453125 75.351563 61.421875 73.566406 63.53125 Z M 86.238281 60.515625 C 88.726563 60.433594 91.078125 60.675781 93.28125 61.164063 C 94.324219 61.394531 95.332031 61.683594 96.304688 62.019531 C 96.976563 61.242188 97.707031 60.492188 98.492188 59.769531 C 100.15625 58.246094 102.070313 56.863281 104.261719 55.683594 C 101.570313 55.066406 98.5625 54.722656 95.199219 54.722656 C 94.910156 54.722656 94.625 54.730469 94.339844 54.734375 C 94.09375 54.871094 93.851563 55.007813 93.609375 55.148438 C 90.695313 56.828125 88.261719 58.632813 86.238281 60.515625 Z M 99.304688 63.246094 C 103.0625 65.039063 106.1875 67.523438 108.636719 70.113281 C 111.085938 67.519531 114.214844 65.039063 117.96875 63.246094 C 115.59375 60.734375 112.535156 58.554688 108.636719 57.027344 C 104.742188 58.554688 101.683594 60.734375 99.304688 63.246094 Z M 110.640625 72.4375 C 111.582031 73.636719 112.375 74.824219 113.019531 75.941406 L 113.015625 75.941406 L 113.019531 75.953125 C 114.074219 77.777344 114.9375 79.871094 115.582031 82.113281 C 117.269531 80.488281 119.0625 79.105469 120.890625 78.046875 C 122.011719 77.402344 123.292969 76.773438 124.710938 76.203125 C 123.933594 72.761719 122.460938 69.039063 119.992188 65.675781 C 116.171875 67.355469 113.035156 69.847656 110.640625 72.4375 Z M 116.402344 85.648438 C 116.867188 88.261719 117.058594 90.988281 116.941406 93.671875 C 119.210938 92.226563 121.667969 91.023438 124.164063 90.121094 C 124.988281 87.488281 125.4375 84.859375 125.4375 82.4375 C 125.4375 81.46875 125.375 80.410156 125.242188 79.292969 C 124.210938 79.738281 123.265625 80.214844 122.421875 80.699219 C 120.324219 81.910156 118.269531 83.617188 116.402344 85.648438 Z M 65.296875 151.414063 C 67.390625 152.738281 69.515625 153.964844 71.667969 155.070313 C 70.082031 153.25 68.636719 151.324219 67.359375 149.292969 C 65.339844 148.019531 63.429688 146.585938 61.621094 145.011719 C 62.734375 147.171875 63.96875 149.308594 65.296875 151.414063 Z M 79.519531 158.496094 C 82.183594 159.449219 84.878906 160.191406 87.59375 160.683594 C 85.171875 158.894531 83.152344 157.011719 81.480469 155.066406 C 78.960938 154.589844 76.324219 153.78125 73.570313 152.582031 C 75.359375 154.691406 77.355469 156.660156 79.519531 158.496094 Z M 94.339844 161.378906 C 94.625 161.382813 94.914063 161.390625 95.199219 161.390625 C 98.5625 161.390625 101.570313 161.046875 104.261719 160.425781 C 102.070313 159.25 100.15625 157.867188 98.492188 156.34375 C 97.707031 155.621094 96.976563 154.867188 96.304688 154.09375 C 95.332031 154.429688 94.324219 154.714844 93.28125 154.949219 C 91.078125 155.4375 88.726563 155.679688 86.238281 155.597656 C 88.261719 157.480469 90.695313 159.285156 93.609375 160.964844 C 93.851563 161.105469 94.09375 161.242188 94.339844 161.378906 Z M 108.636719 159.085938 C 112.535156 157.558594 115.59375 155.375 117.96875 152.867188 C 114.210938 151.070313 111.082031 148.585938 108.632813 145.992188 C 106.183594 148.585938 103.058594 151.070313 99.304688 152.863281 C 101.683594 155.375 104.742188 157.558594 108.636719 159.085938 Z M 119.992188 150.441406 C 122.464844 147.070313 123.9375 143.34375 124.714844 139.898438 C 123.375 139.359375 122.152344 138.765625 121.078125 138.15625 C 121.015625 138.125 120.953125 138.09375 120.894531 138.058594 C 119.066406 137.003906 117.273438 135.617188 115.589844 133.992188 C 114.941406 136.242188 114.078125 138.34375 113.019531 140.171875 L 113.015625 140.167969 C 112.371094 141.285156 111.574219 142.46875 110.636719 143.667969 C 113.03125 146.265625 116.167969 148.757813 119.992188 150.441406 Z M 125.242188 136.816406 C 125.375 135.703125 125.4375 134.644531 125.4375 133.671875 C 125.4375 131.253906 124.988281 128.621094 124.164063 125.992188 C 121.667969 125.085938 119.210938 123.886719 116.941406 122.441406 C 117.058594 125.125 116.867188 127.851563 116.402344 130.464844 C 118.269531 132.496094 120.328125 134.203125 122.425781 135.414063 C 123.265625 135.898438 124.210938 136.375 125.242188 136.816406 Z M 122.65625 122.074219 C 121.667969 119.917969 120.441406 117.835938 119.019531 115.949219 C 117.941406 115.773438 116.875 115.542969 115.835938 115.253906 C 116.125 116.292969 116.355469 117.359375 116.53125 118.4375 C 118.417969 119.859375 120.5 121.085938 122.65625 122.074219 Z M 115.277344 111.890625 C 115.082031 111.71875 114.882813 111.550781 114.683594 111.390625 L 114.449219 111.414063 L 114.546875 111.628906 C 114.789063 111.71875 115.03125 111.804688 115.277344 111.890625 Z M 36.410156 85.316406 C 40.238281 81.277344 44.351563 77.242188 48.6875 73.441406 C 49.8125 67.777344 51.25 62.199219 52.824219 56.878906 C 45.222656 59.328125 38.300781 61.960938 32.632813 64.175781 C 33.546875 70.195313 34.734375 77.503906 36.410156 85.316406 Z M 52.492188 70.21875 C 55.902344 67.433594 59.4375 64.824219 63.070313 62.492188 C 65.40625 58.855469 68.015625 55.320313 70.800781 51.910156 C 65.855469 53.019531 60.996094 54.347656 56.351563 55.769531 C 54.929688 60.414063 53.601563 65.273438 52.492188 70.21875 Z M 69.296875 58.835938 C 72.144531 57.320313 75.042969 56 77.980469 54.917969 C 80.378906 52.921875 82.957031 51.078125 85.683594 49.378906 C 82.335938 49.746094 78.976563 50.265625 75.640625 50.902344 C 73.417969 53.472656 71.289063 56.121094 69.296875 58.835938 Z M 86.410156 52.53125 C 88.773438 52.070313 91.15625 51.78125 93.550781 51.691406 C 95.667969 50.574219 97.871094 49.636719 100.148438 48.859375 C 97.71875 48.738281 95.253906 48.738281 92.769531 48.835938 C 90.570313 49.992188 88.445313 51.222656 86.410156 52.53125 Z M 100.550781 51.953125 C 103.53125 52.292969 106.21875 52.914063 108.636719 53.765625 C 111.054688 52.917969 113.738281 52.292969 116.714844 51.953125 C 114.117188 51.023438 111.414063 50.320313 108.632813 49.8125 C 105.847656 50.320313 103.144531 51.023438 100.550781 51.953125 Z M 113.015625 55.683594 C 115.207031 56.859375 117.121094 58.246094 118.78125 59.769531 C 119.570313 60.492188 120.296875 61.242188 120.972656 62.019531 C 124.003906 60.972656 127.363281 60.390625 131.027344 60.507813 C 129.007813 58.628906 126.578125 56.828125 123.667969 55.148438 C 123.417969 55.003906 123.164063 54.867188 122.914063 54.730469 C 122.636719 54.722656 122.355469 54.722656 122.078125 54.722656 C 118.714844 54.722656 115.703125 55.066406 113.015625 55.683594 Z M 122.960938 64.585938 C 125.320313 68.015625 126.785156 71.726563 127.613281 75.191406 C 131.027344 74.175781 134.976563 73.589844 139.125 73.917969 C 138.320313 70.554688 136.761719 67.136719 134.152344 63.863281 C 130.015625 63.238281 126.273438 63.597656 122.960938 64.585938 Z M 128.1875 78.210938 C 128.402344 79.722656 128.496094 81.148438 128.496094 82.4375 C 128.496094 84.546875 128.195313 86.789063 127.632813 89.058594 C 129.902344 88.496094 132.144531 88.195313 134.253906 88.195313 C 135.546875 88.195313 136.972656 88.289063 138.484375 88.507813 C 139.53125 85.136719 140.117188 81.179688 139.664063 77.03125 C 135.515625 76.574219 131.554688 77.164063 128.1875 78.210938 Z M 58.207031 137.191406 C 60.035156 139.339844 61.992188 141.324219 64.089844 143.101563 C 62.898438 140.355469 62.09375 137.722656 61.621094 135.210938 C 59.679688 133.539063 57.796875 131.519531 56.011719 129.101563 C 56.503906 131.820313 57.253906 134.519531 58.207031 137.191406 Z M 69.597656 147.085938 C 69.839844 147.234375 70.082031 147.382813 70.332031 147.527344 C 73.238281 149.207031 76.011719 150.410156 78.648438 151.21875 C 76.71875 148.105469 75.542969 144.910156 74.929688 141.765625 C 71.785156 141.152344 68.585938 139.976563 65.472656 138.046875 C 66.28125 140.679688 67.488281 143.457031 69.167969 146.363281 C 69.308594 146.605469 69.453125 146.84375 69.597656 147.085938 Z M 83.121094 152.25 C 87.261719 152.875 91.003906 152.515625 94.316406 151.527344 C 91.957031 148.097656 90.488281 144.382813 89.664063 140.914063 C 86.242188 141.9375 82.296875 142.53125 78.152344 142.207031 C 78.957031 145.566406 80.515625 148.980469 83.121094 152.25 Z M 97.28125 150.4375 C 101.101563 148.757813 104.238281 146.265625 106.636719 143.675781 C 105.695313 142.476563 104.898438 141.289063 104.253906 140.171875 L 104.261719 140.167969 L 104.253906 140.160156 C 103.199219 138.332031 102.335938 136.234375 101.6875 133.984375 C 100.011719 135.605469 98.21875 136.984375 96.398438 138.039063 L 96.371094 138.054688 C 95.253906 138.699219 93.972656 139.332031 92.5625 139.898438 C 93.339844 143.34375 94.808594 147.070313 97.28125 150.4375 Z M 108.636719 141.269531 C 109.308594 140.367188 109.890625 139.480469 110.378906 138.640625 C 111.589844 136.542969 112.515625 134.039063 113.117188 131.347656 C 111.410156 129.316406 109.878906 127.046875 108.636719 124.660156 C 107.398438 127.042969 105.867188 129.308594 104.15625 131.34375 C 104.757813 134.035156 105.6875 136.542969 106.898438 138.640625 C 107.386719 139.480469 107.964844 140.367188 108.636719 141.269531 Z M 113.769531 127.207031 C 113.992188 124.84375 113.972656 122.429688 113.683594 120.089844 C 112.835938 119.394531 112.027344 118.660156 111.273438 117.890625 C 111.003906 118.933594 110.671875 119.972656 110.285156 120.996094 C 111.203125 123.167969 112.394531 125.273438 113.769531 127.207031 Z M 112.472656 114.695313 C 112.386719 114.449219 112.300781 114.207031 112.207031 113.964844 L 111.992188 113.867188 L 111.96875 114.101563 C 112.132813 114.304688 112.300781 114.5 112.472656 114.695313 Z M 57.460938 52.242188 C 62.78125 50.667969 68.359375 49.230469 74.019531 48.109375 C 77.820313 43.769531 81.859375 39.65625 85.894531 35.828125 C 78.085938 34.152344 70.773438 32.96875 64.753906 32.050781 C 62.539063 37.71875 59.910156 44.644531 57.460938 52.242188 Z M 78.925781 47.222656 C 83.269531 46.515625 87.632813 46.019531 91.945313 45.816406 C 95.785156 43.832031 99.816406 42.074219 103.9375 40.511719 C 99.101563 39 94.234375 37.722656 89.5 36.628906 C 85.941406 39.945313 82.363281 43.488281 78.925781 47.222656 Z M 99.167969 45.765625 C 102.390625 45.875 105.554688 46.183594 108.636719 46.714844 C 111.71875 46.179688 114.886719 45.878906 118.105469 45.765625 C 115.023438 44.410156 111.847656 43.179688 108.636719 42.0625 C 105.425781 43.179688 102.253906 44.410156 99.167969 45.765625 Z M 117.128906 48.859375 C 119.402344 49.636719 121.605469 50.574219 123.722656 51.6875 C 126.117188 51.78125 128.503906 52.070313 130.867188 52.53125 C 128.828125 51.21875 126.703125 49.992188 124.503906 48.835938 C 122.019531 48.738281 119.554688 48.738281 117.128906 48.859375 Z M 129.675781 55.421875 C 132.097656 57.210938 134.117188 59.097656 135.792969 61.039063 C 138.308594 61.519531 140.945313 62.324219 143.699219 63.527344 C 141.914063 61.417969 139.917969 59.449219 137.753906 57.613281 C 135.089844 56.660156 132.390625 55.914063 129.675781 55.421875 Z M 138.628906 64.894531 C 140.558594 68.007813 141.734375 71.210938 142.347656 74.359375 C 143.355469 74.554688 144.367188 74.808594 145.382813 75.128906 C 147.535156 75.804688 149.6875 76.769531 151.804688 78.082031 C 150.996094 75.441406 149.789063 72.660156 148.109375 69.75 C 147.964844 69.503906 147.8125 69.257813 147.664063 69.011719 C 147.425781 68.867188 147.1875 68.726563 146.945313 68.585938 C 144.035156 66.90625 141.261719 65.703125 138.628906 64.894531 Z M 142.785156 77.570313 C 143.113281 81.714844 142.519531 85.660156 141.496094 89.082031 C 144.964844 89.90625 148.675781 91.375 152.109375 93.734375 C 153.097656 90.421875 153.453125 86.679688 152.832031 82.539063 C 149.5625 79.933594 146.144531 78.375 142.785156 77.570313 Z M 55.316406 122.34375 C 55.453125 122.59375 55.585938 122.839844 55.726563 123.085938 C 57.410156 125.996094 59.214844 128.429688 61.09375 130.453125 C 61.019531 127.964844 61.257813 125.617188 61.75 123.414063 C 61.980469 122.371094 62.265625 121.363281 62.601563 120.390625 C 61.824219 119.714844 61.074219 118.988281 60.351563 118.203125 C 58.828125 116.539063 57.441406 114.625 56.265625 112.429688 C 55.648438 115.121094 55.300781 118.132813 55.300781 121.496094 C 55.300781 121.777344 55.3125 122.0625 55.316406 122.34375 Z M 64.445313 133.570313 C 67.714844 136.179688 71.128906 137.734375 74.488281 138.539063 C 74.164063 134.398438 74.753906 130.449219 75.78125 127.03125 C 72.308594 126.207031 68.597656 124.738281 65.164063 122.378906 C 64.179688 125.691406 63.820313 129.433594 64.445313 133.570313 Z M 77.609375 139.082031 C 81.757813 139.535156 85.71875 138.949219 89.089844 137.902344 C 88.871094 136.390625 88.777344 134.964844 88.777344 133.675781 C 88.777344 131.566406 89.078125 129.320313 89.640625 127.050781 C 87.371094 127.617188 85.128906 127.917969 83.023438 127.917969 C 81.730469 127.917969 80.304688 127.820313 78.789063 127.605469 C 77.742188 130.972656 77.15625 134.933594 77.609375 139.082031 Z M 92.03125 136.816406 C 93.0625 136.375 94.011719 135.898438 94.851563 135.410156 C 96.949219 134.199219 99.007813 132.496094 100.875 130.464844 C 100.40625 127.851563 100.21875 125.125 100.335938 122.441406 C 98.066406 123.886719 95.609375 125.085938 93.113281 125.992188 C 92.289063 128.621094 91.839844 131.253906 91.839844 133.675781 C 91.839844 134.644531 91.902344 135.703125 92.03125 136.816406 Z M 103.507813 127.207031 C 104.882813 125.273438 106.070313 123.167969 106.992188 120.996094 C 106.605469 119.972656 106.273438 118.933594 106.003906 117.894531 C 105.246094 118.660156 104.441406 119.394531 103.59375 120.089844 C 103.304688 122.429688 103.285156 124.84375 103.507813 127.207031 Z M 108.636719 115.722656 C 108.6875 115.464844 108.734375 115.210938 108.777344 114.953125 L 108.636719 114.765625 L 108.5 114.953125 C 108.539063 115.210938 108.589844 115.464844 108.636719 115.722656 Z M 92.226563 34.128906 C 97.628906 35.421875 103.175781 36.964844 108.636719 38.824219 C 114.097656 36.964844 119.648438 35.421875 125.050781 34.128906 C 119.125 28.773438 113.390625 24.09375 108.636719 20.292969 C 103.886719 24.09375 98.148438 28.773438 92.226563 34.128906 Z M 113.339844 40.511719 C 117.460938 42.074219 121.488281 43.832031 125.328125 45.816406 C 129.640625 46.019531 134.003906 46.515625 138.351563 47.222656 C 134.914063 43.488281 131.335938 39.945313 127.777344 36.628906 C 123.042969 37.722656 118.175781 39 113.339844 40.511719 Z M 131.59375 49.375 C 134.3125 51.078125 136.894531 52.921875 139.289063 54.917969 C 142.230469 55.996094 145.128906 57.320313 147.976563 58.835938 C 145.984375 56.121094 143.855469 53.472656 141.636719 50.902344 C 138.296875 50.265625 134.9375 49.746094 131.59375 49.375 Z M 145.578125 61.027344 C 147.164063 62.847656 148.605469 64.769531 149.886719 66.800781 C 151.921875 68.082031 153.84375 69.527344 155.664063 71.113281 C 154.554688 68.949219 153.320313 66.8125 151.988281 64.703125 C 149.882813 63.371094 147.742188 62.140625 145.578125 61.027344 Z M 153.164063 72.984375 C 154.367188 75.746094 155.179688 78.390625 155.65625 80.910156 C 157.597656 82.578125 159.480469 84.589844 161.261719 87 C 160.769531 84.289063 160.027344 81.59375 159.074219 78.929688 C 157.238281 76.765625 155.273438 74.773438 153.164063 72.984375 Z M 156.1875 85.667969 C 156.304688 89.332031 155.71875 92.691406 154.675781 95.722656 C 155.449219 96.398438 156.203125 97.125 156.921875 97.910156 C 158.449219 99.574219 159.832031 101.488281 161.007813 103.679688 C 161.628906 100.988281 161.972656 97.980469 161.972656 94.617188 C 161.972656 94.328125 161.964844 94.042969 161.960938 93.757813 C 161.824219 93.511719 161.6875 93.269531 161.546875 93.027344 C 159.867188 90.117188 158.066406 87.6875 156.1875 85.667969 Z M 57.609375 108.058594 C 59.136719 111.953125 61.320313 115.011719 63.828125 117.390625 C 65.621094 113.628906 68.101563 110.503906 70.695313 108.054688 C 68.101563 105.605469 65.621094 102.480469 63.828125 98.722656 C 61.316406 101.101563 59.136719 104.160156 57.609375 108.058594 Z M 66.253906 119.410156 C 69.621094 121.882813 73.351563 123.355469 76.792969 124.132813 C 77.320313 122.828125 77.894531 121.640625 78.488281 120.585938 C 78.570313 120.402344 78.675781 120.222656 78.796875 120.050781 C 79.832031 118.3125 81.164063 116.609375 82.707031 115.003906 C 80.53125 114.378906 78.496094 113.550781 76.710938 112.539063 C 76.648438 112.507813 76.585938 112.476563 76.523438 112.441406 C 75.40625 111.796875 74.21875 111 73.019531 110.058594 C 70.425781 112.453125 67.933594 115.589844 66.253906 119.410156 Z M 79.875 124.660156 C 80.992188 124.792969 82.050781 124.855469 83.023438 124.855469 C 85.441406 124.855469 88.070313 124.40625 90.703125 123.582031 C 91.605469 121.085938 92.808594 118.628906 94.253906 116.359375 C 91.570313 116.476563 88.84375 116.285156 86.230469 115.820313 C 84.199219 117.6875 82.492188 119.746094 81.28125 121.84375 C 80.796875 122.683594 80.320313 123.632813 79.875 124.660156 Z M 94.621094 122.074219 C 96.777344 121.085938 98.859375 119.859375 100.742188 118.4375 C 100.921875 117.359375 101.152344 116.292969 101.4375 115.253906 C 100.402344 115.542969 99.335938 115.773438 98.253906 115.949219 C 96.835938 117.835938 95.609375 119.917969 94.621094 122.074219 Z M 104.804688 114.695313 C 104.976563 114.5 105.140625 114.304688 105.304688 114.101563 L 105.28125 113.867188 L 105.066406 113.964844 C 104.976563 114.207031 104.886719 114.449219 104.804688 114.695313 Z M 131.378906 35.828125 C 135.414063 39.65625 139.453125 43.769531 143.253906 48.105469 C 148.917969 49.230469 154.492188 50.667969 159.816406 52.242188 C 157.363281 44.640625 154.734375 37.722656 152.519531 32.050781 C 146.5 32.96875 139.191406 34.152344 131.378906 35.828125 Z M 146.472656 51.910156 C 149.261719 55.320313 151.871094 58.855469 154.203125 62.488281 C 157.839844 64.824219 161.375 67.433594 164.785156 70.222656 C 163.675781 65.273438 162.347656 60.414063 160.925781 55.769531 C 156.277344 54.347656 151.421875 53.019531 146.472656 51.910156 Z M 157.859375 68.71875 C 159.375 71.566406 160.695313 74.464844 161.777344 77.402344 C 163.769531 79.796875 165.613281 82.378906 167.316406 85.101563 C 166.949219 81.753906 166.429688 78.394531 165.789063 75.058594 C 163.222656 72.839844 160.574219 70.707031 157.859375 68.71875 Z M 164.160156 85.828125 C 164.621094 88.1875 164.910156 90.5625 165.003906 92.949219 C 166.117188 95.066406 167.058594 97.269531 167.839844 99.546875 C 167.957031 97.125 167.957031 94.667969 167.855469 92.1875 C 166.703125 89.992188 165.472656 87.863281 164.160156 85.828125 Z M 164.742188 99.96875 C 164.402344 102.949219 163.777344 105.636719 162.929688 108.058594 C 163.777344 110.472656 164.402344 113.15625 164.742188 116.132813 C 165.671875 113.535156 166.375 110.835938 166.882813 108.050781 C 166.375 105.265625 165.671875 102.5625 164.742188 99.96875 Z M 66.253906 96.699219 C 67.933594 100.519531 70.425781 103.65625 73.015625 106.050781 C 74.214844 105.105469 75.402344 104.3125 76.519531 103.664063 C 78.347656 102.609375 80.445313 101.746094 82.695313 101.101563 C 81.074219 99.417969 79.691406 97.628906 78.636719 95.804688 L 78.644531 95.800781 L 78.636719 95.789063 C 77.992188 94.675781 77.363281 93.394531 76.796875 91.980469 C 73.351563 92.757813 69.625 94.230469 66.253906 96.699219 Z M 75.425781 108.054688 C 76.328125 108.730469 77.210938 109.308594 78.054688 109.796875 C 80.152344 111.007813 82.660156 111.9375 85.351563 112.535156 C 87.382813 110.824219 89.648438 109.296875 92.03125 108.058594 C 89.648438 106.8125 87.378906 105.285156 85.347656 103.578125 C 82.65625 104.179688 80.152344 105.105469 78.050781 106.316406 C 77.210938 106.804688 76.324219 107.386719 75.425781 108.054688 Z M 89.488281 113.1875 C 91.847656 113.410156 94.265625 113.390625 96.605469 113.101563 C 97.300781 112.253906 98.03125 111.445313 98.800781 110.691406 C 97.761719 110.421875 96.722656 110.089844 95.699219 109.703125 C 93.527344 110.621094 91.421875 111.8125 89.488281 113.1875 Z M 101.996094 111.890625 C 102.246094 111.804688 102.488281 111.71875 102.730469 111.628906 L 102.824219 111.414063 L 102.589844 111.390625 C 102.390625 111.550781 102.195313 111.71875 101.996094 111.890625 Z M 164.449219 56.878906 C 166.027344 62.199219 167.464844 67.777344 168.585938 73.4375 C 172.925781 77.238281 177.039063 81.277344 180.867188 85.316406 C 182.542969 77.503906 183.726563 70.195313 184.644531 64.175781 C 178.972656 61.960938 172.050781 59.328125 164.449219 56.878906 Z M 169.472656 78.347656 C 170.179688 82.691406 170.671875 87.054688 170.878906 91.363281 C 172.863281 95.203125 174.621094 99.234375 176.183594 103.355469 C 177.695313 98.519531 178.972656 93.652344 180.0625 88.917969 C 176.75 85.359375 173.203125 81.78125 169.472656 78.347656 Z M 170.929688 98.585938 C 170.816406 101.800781 170.515625 104.960938 169.984375 108.035156 C 170.519531 111.121094 170.824219 114.289063 170.933594 117.511719 C 172.289063 114.433594 173.515625 111.261719 174.632813 108.054688 C 173.515625 104.84375 172.285156 101.671875 170.929688 98.585938 Z M 167.835938 116.546875 C 167.058594 118.824219 166.117188 121.023438 165.003906 123.140625 C 164.914063 125.535156 164.625 127.921875 164.160156 130.285156 C 165.476563 128.25 166.703125 126.121094 167.859375 123.921875 C 167.957031 121.4375 167.953125 118.972656 167.835938 116.546875 Z M 79.875 91.449219 C 80.320313 92.484375 80.796875 93.429688 81.28125 94.269531 C 82.492188 96.367188 84.195313 98.421875 86.222656 100.285156 C 88.835938 99.820313 91.5625 99.632813 94.25 99.75 C 92.804688 97.480469 91.605469 95.023438 90.703125 92.53125 C 88.070313 91.707031 85.441406 91.257813 83.019531 91.257813 C 82.046875 91.257813 80.992188 91.320313 79.875 91.449219 Z M 89.488281 102.925781 C 91.421875 104.300781 93.527344 105.488281 95.699219 106.410156 C 96.722656 106.023438 97.761719 105.691406 98.800781 105.421875 C 98.03125 104.664063 97.300781 103.859375 96.605469 103.011719 C 94.265625 102.722656 91.847656 102.703125 89.488281 102.925781 Z M 100.972656 108.058594 C 101.226563 108.105469 101.484375 108.152344 101.738281 108.195313 L 101.929688 108.058594 L 101.738281 107.917969 C 101.484375 107.960938 101.226563 108.007813 100.972656 108.058594 Z M 182.566406 91.644531 C 181.269531 97.046875 179.726563 102.59375 177.871094 108.054688 C 179.726563 113.519531 181.269531 119.066406 182.566406 124.46875 C 187.921875 118.542969 192.601563 112.808594 196.402344 108.058594 C 192.601563 103.304688 187.921875 97.566406 182.566406 91.644531 Z M 176.183594 112.757813 C 174.621094 116.875 172.863281 120.902344 170.882813 124.738281 C 170.679688 129.050781 170.183594 133.417969 169.476563 137.765625 C 173.207031 134.332031 176.75 130.75 180.0625 127.195313 C 178.972656 122.460938 177.695313 117.59375 176.183594 112.757813 Z M 167.316406 131.011719 C 165.613281 133.734375 163.773438 136.316406 161.777344 138.710938 C 160.695313 141.648438 159.375 144.546875 157.859375 147.394531 C 160.574219 145.402344 163.222656 143.273438 165.789063 141.054688 C 166.429688 137.714844 166.949219 134.355469 167.316406 131.011719 Z M 94.617188 94.039063 C 95.605469 96.195313 96.832031 98.273438 98.253906 100.15625 C 99.332031 100.335938 100.398438 100.566406 101.4375 100.855469 C 101.152344 99.816406 100.921875 98.753906 100.742188 97.675781 C 98.859375 96.253906 96.777344 95.027344 94.617188 94.039063 Z M 101.996094 104.222656 C 102.191406 104.394531 102.390625 104.5625 102.589844 104.722656 L 102.824219 104.699219 L 102.730469 104.484375 C 102.488281 104.394531 102.242188 104.308594 101.996094 104.222656 Z M 180.867188 130.796875 C 177.039063 134.832031 172.929688 138.871094 168.589844 142.667969 C 167.46875 148.328125 166.027344 153.90625 164.445313 159.238281 C 172.050781 156.785156 178.972656 154.15625 184.644531 151.9375 C 183.726563 145.917969 182.542969 138.609375 180.867188 130.796875 Z M 164.785156 145.890625 C 161.375 148.675781 157.839844 151.289063 154.203125 153.621094 C 151.871094 157.257813 149.257813 160.792969 146.472656 164.203125 C 151.421875 163.09375 156.277344 161.765625 160.925781 160.34375 C 162.347656 155.699219 163.675781 150.839844 164.785156 145.890625 Z M 159.816406 163.867188 C 154.492188 165.445313 148.917969 166.882813 143.253906 168.003906 C 139.453125 172.34375 135.414063 176.457031 131.378906 180.285156 C 139.191406 181.960938 146.5 183.144531 152.519531 184.0625 C 154.734375 178.390625 157.363281 171.46875 159.816406 163.867188 Z M 109.515625 108.054688 C 109.570313 108.152344 109.609375 108.246094 109.644531 108.324219 C 109.578125 108.375 109.492188 108.433594 109.398438 108.492188 C 109.394531 108.605469 109.382813 108.710938 109.375 108.792969 C 109.292969 108.800781 109.1875 108.8125 109.078125 108.816406 C 109.019531 108.910156 108.957031 108.996094 108.90625 109.0625 C 108.832031 109.027344 108.734375 108.984375 108.636719 108.933594 C 108.539063 108.984375 108.445313 109.027344 108.367188 109.0625 C 108.320313 108.996094 108.257813 108.910156 108.199219 108.816406 C 108.085938 108.8125 107.984375 108.800781 107.898438 108.792969 C 107.890625 108.710938 107.882813 108.605469 107.878906 108.492188 C 107.78125 108.433594 107.699219 108.375 107.632813 108.324219 C 107.664063 108.246094 107.707031 108.152344 107.757813 108.054688 C 107.707031 107.957031 107.664063 107.863281 107.628906 107.785156 C 107.699219 107.734375 107.78125 107.675781 107.878906 107.617188 C 107.882813 107.503906 107.890625 107.402344 107.898438 107.316406 C 107.984375 107.308594 108.089844 107.296875 108.199219 107.296875 C 108.257813 107.199219 108.320313 107.113281 108.367188 107.046875 C 108.445313 107.082031 108.539063 107.125 108.636719 107.175781 C 108.734375 107.125 108.832031 107.082031 108.90625 107.046875 C 108.957031 107.113281 109.019531 107.199219 109.078125 107.296875 C 109.1875 107.296875 109.292969 107.308594 109.375 107.316406 C 109.382813 107.402344 109.394531 107.503906 109.398438 107.617188 C 109.492188 107.675781 109.578125 107.734375 109.644531 107.785156 C 109.613281 107.863281 109.570313 107.957031 109.515625 108.054688 "/>
</g>
</svg>
