<?xml version="1.0" encoding="iso-8859-1"?>
<!-- Generator: Adobe Illustrator 19.0.0, SVG Export Plug-In . SVG Version: 6.00 Build 0)  -->
<svg version="1.1" id="Layer_1" fill="#FFF"
	xmlns="http://www.w3.org/2000/svg"
	xmlns:xlink="http://www.w3.org/1999/xlink" x="0px" y="0px" viewBox="0 0 512.001 512.001" style="enable-background:new 0 0 512.001 512.001;" xml:space="preserve">
	<g>
		<g>
			<path d="M459.102,274.658v-66.057c0-21.692-17.647-39.34-39.34-39.34H263.033c1.776-6.602,2.699-13.463,2.699-20.469
			c0-6.653-0.839-13.112-2.404-19.285c14.402,16.775,35.739,27.433,59.531,27.433c43.268,0,78.47-35.201,78.47-78.47
			S366.127,0,322.858,0c-43.269,0-78.47,35.201-78.47,78.47c0,6.653,0.839,13.113,2.404,19.285
			c-14.402-16.775-35.739-27.433-59.531-27.433c-43.268,0-78.469,35.202-78.469,78.47c0,7.005,0.923,13.865,2.699,20.469h-51.4
			c-21.692,0-39.339,17.647-39.339,39.34v264.06c0,21.692,17.647,39.339,39.339,39.339h359.671c21.692,0,39.34-17.647,39.34-39.339
			v-66.057c18.074-2.112,32.148-17.51,32.148-36.141v-59.662C491.251,292.167,477.176,276.769,459.102,274.658z M322.858,33.089
			c25.023,0,45.381,20.358,45.381,45.381s-20.358,45.381-45.381,45.381c-25.023,0-45.381-20.358-45.381-45.381
			S297.835,33.089,322.858,33.089z M187.262,103.41c25.023,0,45.381,20.358,45.381,45.381c0,7.216-1.663,14.172-4.859,20.469H146.74
			c-3.195-6.298-4.859-13.253-4.859-20.469C141.882,123.769,162.239,103.41,187.262,103.41z M426.013,472.66
			c0,3.447-2.804,6.25-6.252,6.25H60.09c-3.447,0-6.25-2.804-6.25-6.25V208.6c0-3.447,2.804-6.252,6.25-6.252
			c7.133,0,351.077,0,359.671,0c3.447,0,6.252,2.804,6.252,6.252v65.802c-10.293,0-106.432,0-116.753,0
			c-19.42,0-35.22,15.8-35.22,35.22c0,13.827,0,56.904,0,62.017c0,19.42,15.8,35.22,35.22,35.22c10.32,0,106.46,0,116.753,0V472.66z
			 M458.162,370.461c0,1.824-1.483,3.308-3.308,3.308c-5.223,0-137.183,0-144.416,0c-1.824,0-3.309-1.483-3.309-3.308v-59.662
			c0-1.824,1.485-3.308,3.309-3.308c7.394,0,139.29,0,144.416,0c1.824,0,3.308,1.484,3.308,3.308V370.461z"/>
		</g>
	</g>
	<g>
		<g>
			<circle cx="340.154" cy="340.627" r="21.92"/>
		</g>
	</g>
	<g>
	</g>
	<g>
	</g>
	<g>
	</g>
	<g>
	</g>
	<g>
	</g>
	<g>
	</g>
	<g>
	</g>
	<g>
	</g>
	<g>
	</g>
	<g>
	</g>
	<g>
	</g>
	<g>
	</g>
	<g>
	</g>
	<g>
	</g>
	<g>
	</g>
</svg>
